<svg width="28" height="31" viewBox="0 0 28 31" fill="none" xmlns="http://www.w3.org/2000/svg">
<path d="M2.35346 30.6903C3.04841 30.9944 3.81675 31.077 4.55823 30.9273C5.29971 30.7776 5.97992 30.4025 6.51011 29.851L14 22.2234L21.4899 29.851C21.8391 30.2138 22.2551 30.5021 22.7139 30.6992C23.1727 30.8963 23.665 30.9982 24.1625 30.9991C24.6739 30.9976 25.18 30.8927 25.6516 30.6903C26.3522 30.3999 26.9511 29.9 27.37 29.2558C27.7889 28.6116 28.0084 27.853 27.9998 27.0791V6.51598C27.9977 4.78847 27.3266 3.13231 26.1337 1.91077C24.9407 0.689237 23.3233 0.00206929 21.6362 0L6.36375 0C4.67666 0.00206929 3.05924 0.689237 1.86629 1.91077C0.673333 3.13231 0.00224251 4.78847 0.000221637 6.51598V27.0791C-0.00799136 27.8536 0.212224 28.6126 0.632074 29.2569C1.05192 29.9012 1.65187 30.4007 2.35346 30.6903Z" fill="#1E1E1E"/>
</svg>
