<svg width="28" height="30" viewBox="0 0 28 30" fill="none" xmlns="http://www.w3.org/2000/svg">
<path d="M24.356 29.9957C23.8852 29.9944 23.4193 29.9015 22.9853 29.7224C22.5512 29.5433 22.1576 29.2814 21.8272 28.9521L14 21.3107L6.17281 28.9571C5.67013 29.4579 5.02545 29.7984 4.32282 29.9342C3.62019 30.0699 2.8922 29.9947 2.23377 29.7182C1.5688 29.4555 0.999931 29.0021 0.60146 28.417C0.20299 27.832 -0.00656624 27.1425 0.000156844 26.4387V6.24909C0.000156844 4.59173 0.670601 3.00225 1.864 1.83032C3.0574 0.658385 4.676 0 6.36372 0L21.6363 0C22.4719 0 23.2994 0.161638 24.0715 0.475684C24.8436 0.78973 25.5451 1.25004 26.136 1.83032C26.7269 2.4106 27.1956 3.09949 27.5154 3.85767C27.8352 4.61584 27.9998 5.42845 27.9998 6.24909V26.4387C28.007 27.1419 27.7981 27.831 27.4006 28.416C27.0031 29.0009 26.4353 29.4548 25.7713 29.7182C25.3231 29.9023 24.8419 29.9966 24.356 29.9957ZM6.36372 2.49964C5.35108 2.49964 4.37993 2.89467 3.66389 3.59783C2.94785 4.30099 2.54558 5.25468 2.54558 6.24909V26.4387C2.54512 26.6469 2.60752 26.8507 2.72491 27.0241C2.84229 27.1976 3.00939 27.333 3.20509 27.4132C3.40079 27.4934 3.61632 27.5149 3.82445 27.475C4.03259 27.435 4.22398 27.3353 4.37447 27.1886L13.1091 18.6635C13.3476 18.4308 13.6701 18.3001 14.0064 18.3001C14.3426 18.3001 14.6652 18.4308 14.9036 18.6635L23.6281 27.1861C23.7785 27.3328 23.9699 27.4325 24.1781 27.4725C24.3862 27.5124 24.6017 27.4909 24.7974 27.4107C24.9931 27.3305 25.1602 27.1951 25.2776 27.0216C25.395 26.8482 25.4574 26.6444 25.4569 26.4362V6.24909C25.4569 5.25468 25.0547 4.30099 24.3386 3.59783C23.6226 2.89467 22.6514 2.49964 21.6388 2.49964H6.36372Z" fill="#1E1E1E"/>
</svg>
