<svg width="113" height="113" viewBox="0 0 113 113" fill="none" xmlns="http://www.w3.org/2000/svg">
<path d="M68.465 87.8684L68.4684 92.1218L68.3861 92.1218L68.3859 93.0141C68.3859 93.0307 68.3853 93.0472 68.3842 93.0635L68.3834 96.0202C68.3843 96.0734 68.3848 96.1267 68.3848 96.1802C68.3848 96.1956 68.3843 96.2108 68.3834 96.226L68.3824 99.9846C68.3838 100.055 68.3848 100.125 68.3848 100.196C68.3848 100.216 68.3839 100.237 68.3823 100.257L68.3813 103.949C68.3835 104.036 68.3848 104.123 68.3848 104.211C68.3848 104.236 68.3836 104.26 68.3812 104.285L68.3802 107.925C68.3832 108.025 68.3848 108.126 68.3848 108.226C68.3848 108.255 68.3832 108.283 68.3801 108.31L68.3792 111.91C68.3828 112.02 68.3848 112.131 68.3848 112.242C68.3848 112.661 68.0445 113 67.6248 113C67.2051 113 66.8649 112.661 66.8649 112.242C66.8649 109.654 65.7125 107.308 63.8494 105.609C61.9686 103.893 59.3629 102.832 56.478 102.832C53.5932 102.832 50.9874 103.893 49.1066 105.609C47.2435 107.308 46.0912 109.654 46.0912 112.242C46.0912 112.661 45.7509 113 45.3312 113C44.9115 113 44.5712 112.661 44.5712 112.242C44.5712 112.146 44.5726 112.051 44.5752 111.956L44.5889 108.389C44.5773 108.337 44.5712 108.282 44.5712 108.226C44.5712 108.01 44.5783 107.794 44.5919 107.581L44.6039 104.432C44.5827 104.362 44.5712 104.288 44.5712 104.211C44.5712 103.92 44.5837 103.632 44.6081 103.347L44.6191 100.461C44.5882 100.378 44.5712 100.289 44.5712 100.196C44.5712 99.8471 44.5892 99.5025 44.624 99.1624L44.6343 96.4828C44.5937 96.3901 44.5712 96.2878 44.5712 96.1802C44.5712 95.7822 44.5947 95.3893 44.6399 95.0023L44.6464 93.303C44.6094 93.214 44.589 93.1164 44.589 93.0141L44.59 89.0565C44.5892 89.042 44.5887 89.0274 44.5887 89.0128C44.5887 86.4245 43.4364 84.0792 41.5733 82.3797C39.6925 80.6641 37.0868 79.603 34.2019 79.603C31.317 79.603 28.7113 80.6641 26.8305 82.3797C24.9674 84.0792 23.8151 86.4245 23.8151 89.0128C23.8151 89.0307 23.8144 89.0486 23.8131 89.0662L23.8121 93.0141C23.8121 93.4311 23.4732 93.7692 23.0551 93.7692C22.637 93.7692 22.2981 93.4311 22.2981 93.0141L22.2991 89.091C22.2965 89.0653 22.2951 89.0392 22.2951 89.0128C22.2951 88.9163 22.2965 88.8201 22.2992 88.7243L22.3002 85.085C22.2969 85.0562 22.2951 85.027 22.2951 84.9973C22.2951 84.8904 22.297 84.7838 22.3003 84.6776L22.3013 81.0788C22.2972 81.047 22.2951 81.0147 22.2951 80.9819C22.2951 80.8644 22.2974 80.7475 22.3014 80.6309L22.3023 77.071C22.2976 77.0368 22.2951 77.0019 22.2951 76.9665C22.2951 76.8385 22.2977 76.7112 22.3025 76.5843L22.3031 74.1052C22.2971 74.0666 22.2939 74.0271 22.2939 73.9868L22.2949 70.0291C22.2941 70.0147 22.2936 70.0001 22.2936 69.9855C22.2936 67.3972 21.1412 65.0519 19.2782 63.3524C17.3974 61.6368 14.7917 60.5757 11.9068 60.5757C9.02192 60.5757 6.41616 61.6368 4.53539 63.3524C2.67231 65.0519 1.51993 67.3972 1.51993 69.9855C1.51993 70.0034 1.51925 70.0211 1.51803 70.0386L1.51699 73.9868C1.51699 74.4039 1.17806 74.742 0.759985 74.742C0.341908 74.742 0.00298114 74.4039 0.00298112 73.9868L0.00402594 70.0639C0.00136606 70.0382 -1.87907e-06 70.012 -1.88022e-06 69.9855C-1.88445e-06 69.8888 0.00140402 69.7925 0.0041209 69.6964L0.00510874 66.0579C0.00176488 66.029 -2.05445e-06 65.9998 -2.05574e-06 65.9701C-2.06043e-06 65.8629 0.00185984 65.7562 0.00520369 65.6498L0.00617251 62.0517C0.00210668 62.0199 -2.22983e-06 61.9875 -2.23126e-06 61.9546C-2.23641e-06 61.837 0.00225866 61.7199 0.00628648 61.6031L0.00723629 58.0439C0.00250549 58.0096 -2.40523e-06 57.9747 -2.40678e-06 57.9392C-2.41238e-06 57.8111 0.00260048 57.6835 0.00736927 57.5565L0.00831908 54.036C0.00286631 53.9994 -2.58064e-06 53.9619 -2.58231e-06 53.9237C-2.71463e-06 50.8965 1.34294 48.1578 3.51418 46.1773C5.66774 44.2129 8.63544 42.9978 11.9068 42.9978C15.1781 42.9978 18.1458 44.2129 20.2994 46.1773C21.0814 46.8907 21.756 47.7024 22.2991 48.5905L22.2991 48.4194C22.2965 48.3936 22.2951 48.3675 22.2951 48.3411C22.2951 48.2446 22.2965 48.1484 22.2992 48.0526L22.3002 44.4133C22.2969 44.3845 22.2951 44.3553 22.2951 44.3256C22.2951 44.2187 22.297 44.1121 22.3003 44.0059L22.3013 40.4071C22.2972 40.3753 22.2951 40.343 22.2951 40.3102C22.2951 40.1927 22.2974 40.0758 22.3014 39.9592L22.3023 36.3993C22.2976 36.3651 22.2951 36.3302 22.2951 36.2948C22.2951 36.1668 22.2977 36.0395 22.3025 35.9126L22.3034 32.3915C22.298 32.3549 22.2951 32.3175 22.2951 32.2793C22.2951 29.252 23.6381 26.5134 25.8093 24.5329C27.9629 22.5684 30.9306 21.3534 34.2019 21.3534C37.4732 21.3534 40.4409 22.5684 42.5945 24.5329C43.3914 25.2598 44.0766 26.089 44.6249 26.997L44.6248 26.9877C44.6248 26.891 44.6262 26.7947 44.6289 26.6986L44.6299 23.0601C44.6265 23.0312 44.6248 23.002 44.6248 22.9723C44.6248 22.8651 44.6266 22.7584 44.63 22.652L44.631 19.0538C44.6269 19.0221 44.6248 18.9897 44.6248 18.9568C44.6248 18.8392 44.627 18.7221 44.6311 18.6053L44.632 15.046C44.6273 15.0118 44.6248 14.9769 44.6248 14.9414C44.6248 14.8133 44.6274 14.6857 44.6322 14.5587L44.6331 11.0382C44.6277 11.0016 44.6248 10.9641 44.6248 10.9259C44.6248 7.89865 45.9677 5.16001 48.139 3.17947C50.2925 1.21506 53.2602 5.30132e-06 56.5316 5.15832e-06C59.8029 5.01533e-06 62.7706 1.21505 64.9242 3.17947C66.9897 5.06358 68.3056 7.63386 68.4288 10.486C68.4349 10.5246 68.4381 10.5642 68.4381 10.6046L68.438 10.8771L68.4384 10.9259L68.438 10.9484L68.437 14.7806C68.4378 14.8341 68.4384 14.8877 68.4384 14.9414C68.4384 14.9568 68.4378 14.9722 68.4369 14.9874L68.4359 18.7452C68.4374 18.8156 68.4384 18.8861 68.4384 18.9568C68.4384 18.9775 68.4375 18.9981 68.4358 19.0184L68.4349 22.7098C68.4371 22.7971 68.4384 22.8845 68.4384 22.9723C68.4384 22.9971 68.4371 23.0217 68.4348 23.0459L68.4338 26.6864C68.4355 26.7438 68.4367 26.8013 68.4375 26.8589C68.971 26.0048 69.6267 25.2228 70.3831 24.5328C72.5367 22.5684 75.5044 21.3534 78.7757 21.3534C82.047 21.3534 85.0147 22.5684 87.1683 24.5328C89.2338 26.417 90.5496 28.9871 90.6729 31.8392C90.679 31.8779 90.6822 31.9176 90.6822 31.958L90.6821 32.2331L90.6825 32.2793L90.6821 32.3013L90.6811 36.1347C90.6819 36.188 90.6825 36.2413 90.6825 36.2948C90.6825 36.3101 90.682 36.3254 90.681 36.3405L90.6801 40.0991C90.6815 40.1693 90.6825 40.2397 90.6825 40.3102C90.6825 40.3309 90.6816 40.3514 90.68 40.3717L90.679 44.0635C90.6812 44.1507 90.6825 44.238 90.6825 44.3256C90.6825 44.3505 90.6812 44.375 90.6789 44.3992L90.6779 48.0399C90.6809 48.14 90.6825 48.2404 90.6825 48.3411C90.6825 48.3694 90.6809 48.3974 90.6778 48.4249L90.6778 48.6289C91.2248 47.7258 91.9073 46.9009 92.7006 46.1773C94.8542 44.2129 97.8219 42.9978 101.093 42.9978C104.365 42.9978 107.332 44.2129 109.486 46.1773C111.551 48.0614 112.867 50.6317 112.99 53.4838C112.997 53.5224 113 53.562 113 53.6024L113 53.8749L113 53.9237L113 53.9462L112.999 57.7784C112.999 57.8319 113 57.8855 113 57.9392C113 57.9546 112.999 57.97 112.999 57.9852L112.998 61.743C112.999 61.8134 113 61.8839 113 61.9546C113 61.9753 112.999 61.9959 112.998 62.0162L112.997 65.7076C112.999 65.7948 113 65.8823 113 65.97C113 65.9949 112.999 66.0195 112.996 66.0437L112.995 69.6842C112.998 69.7843 113 69.8847 113 69.9855C113 70.0138 112.998 70.0418 112.995 70.0694L112.994 73.9868C112.994 74.4038 112.655 74.7419 112.237 74.7419C111.819 74.7419 111.48 74.4038 111.48 73.9868L111.481 70.0291C111.481 70.0147 111.48 70.0001 111.48 69.9855C111.48 67.3972 110.328 65.0519 108.465 63.3524C106.584 61.6368 103.978 60.5757 101.093 60.5757C98.2084 60.5757 95.6026 61.6368 93.7218 63.3524C91.9192 64.9968 90.7819 67.2457 90.7101 69.7344L90.7125 72.7876C90.7125 72.8268 90.7095 72.8652 90.7037 72.9028L90.7034 73.9868C90.7034 74.0487 90.6959 74.1089 90.6818 74.1665L90.6811 76.8064C90.6819 76.8597 90.6825 76.913 90.6825 76.9664C90.6825 76.9818 90.682 76.9971 90.6811 77.0122L90.6801 80.7708C90.6815 80.841 90.6825 80.9113 90.6825 80.9819C90.6825 81.0026 90.6816 81.0231 90.68 81.0433L90.679 84.7352C90.6812 84.8224 90.6825 84.9097 90.6825 84.9973C90.6825 85.0221 90.6812 85.0467 90.6789 85.0709L90.6779 88.7116C90.6809 88.8117 90.6825 88.912 90.6825 89.0128C90.6825 89.0411 90.6809 89.0691 90.6778 89.0966L90.6768 93.0141C90.6768 93.4311 90.3378 93.7692 89.9198 93.7692C89.5017 93.7692 89.1628 93.4311 89.1628 93.0141L89.1638 89.0565C89.163 89.042 89.1625 89.0274 89.1625 89.0128C89.1625 86.4245 88.0102 84.0791 86.1471 82.3797C84.2663 80.6641 81.6606 79.6029 78.7757 79.6029C75.8908 79.6029 73.2851 80.6641 71.4043 82.3797C69.8201 83.8248 68.7499 85.737 68.465 87.8684ZM66.8894 71.0985C66.6584 68.8935 65.5672 66.9015 63.9205 65.4062C62.0363 63.6953 59.4307 62.6321 56.5501 62.6319L56.5501 62.6348L56.5479 62.6348L56.5479 62.6319C53.6674 62.6321 51.0618 63.6953 49.1777 65.4059C47.3131 67.0988 46.1598 69.4253 46.1598 71.9743L46.1628 71.9743L46.1628 71.9752L46.1598 71.9752L46.1594 86.7843C46.702 85.8978 47.3757 85.0876 48.1565 84.3754C50.31 82.411 53.2777 81.1959 56.5491 81.1959C59.8216 81.1959 62.7884 82.4092 64.9419 84.3709C65.691 85.0533 66.3419 85.8263 66.8736 86.6707L66.874 85.085C66.8707 85.0562 66.8689 85.027 66.8689 84.9973C66.8689 84.8904 66.8708 84.7838 66.8741 84.6776L66.8751 81.0788C66.871 81.047 66.8689 81.0147 66.8689 80.9819C66.8689 80.8644 66.8712 80.7475 66.8752 80.6309L66.8761 77.071C66.8714 77.0368 66.8689 77.0019 66.8689 76.9665C66.8689 76.8385 66.8715 76.7112 66.8763 76.5843L66.8772 73.0632C66.8718 73.0266 66.8689 72.9891 66.8689 72.951C66.8689 72.7355 66.8759 72.5214 66.8894 72.309L66.8894 71.0985ZM64.9417 64.2869C65.6781 64.9556 66.3191 65.7109 66.8448 66.5338C66.5637 64.3949 65.4919 62.4757 63.903 61.0263C62.0222 59.3107 59.4164 58.2496 56.5316 58.2496C53.6467 58.2496 51.0409 59.3107 49.1602 61.0263C47.5539 62.4915 46.476 64.4369 46.2094 66.604C46.743 65.7534 47.3993 64.9741 48.1565 64.2866C50.3061 62.3349 53.2731 61.1219 56.5479 61.1217L56.5479 61.1187L56.5501 61.1187L56.5501 61.1217C59.825 61.1219 62.7921 62.3349 64.9417 64.2869ZM49.1777 85.4888C47.7173 86.8209 46.6937 88.55 46.3194 90.4818C46.8181 89.7355 47.4119 89.0481 48.0854 88.4337C50.239 86.4693 53.2067 85.2543 56.478 85.2543C59.7493 85.2543 62.7171 86.4693 64.8706 88.4337C65.6437 89.1389 66.3117 89.9403 66.8515 90.8166C66.5295 88.7526 65.469 86.9005 63.9207 85.4902C62.0363 83.7737 59.4311 82.712 56.5491 82.712C53.6642 82.712 51.0585 83.7732 49.1777 85.4888ZM46.231 106.678C46.7475 105.879 47.3717 105.147 48.0854 104.495C50.239 102.531 53.2067 101.316 56.478 101.316C59.7493 101.316 62.7171 102.531 64.8706 104.495C65.5843 105.147 66.2085 105.879 66.725 106.678C66.3656 104.709 65.3328 102.947 63.8494 101.593C61.9686 99.8779 59.3629 98.8167 56.478 98.8167C53.5932 98.8167 50.9874 99.8779 49.1066 101.593C47.6232 102.947 46.5904 104.709 46.231 106.678ZM46.2311 102.662C46.7475 101.864 47.3717 101.131 48.0854 100.48C50.239 98.5156 53.2067 97.3006 56.478 97.3006C59.7493 97.3006 62.7171 98.5156 64.8706 100.48C65.5843 101.131 66.2085 101.864 66.725 102.662C66.3656 100.694 65.3328 98.9311 63.8494 97.578C61.9686 95.8624 59.3629 94.8013 56.478 94.8013C53.5932 94.8013 50.9874 95.8624 49.1066 97.578C47.6233 98.9311 46.5904 100.694 46.2311 102.662ZM46.231 98.6469C46.7475 97.8486 47.3717 97.1157 48.0854 96.4646C50.239 94.5002 53.2067 93.2851 56.478 93.2851C59.7493 93.2851 62.7171 94.5002 64.8706 96.4646C65.5843 97.1156 66.2085 97.8486 66.725 98.6468C66.3656 96.6782 65.3328 94.9157 63.8494 93.5626C61.9686 91.847 59.3629 90.7858 56.478 90.7858C53.5932 90.7858 50.9874 91.847 49.1066 93.5626C47.6232 94.9157 46.5904 96.6782 46.231 98.6469ZM46.2311 94.6314C46.7475 93.8332 47.3717 93.1002 48.0854 92.4492C50.239 90.4847 53.2067 89.2697 56.478 89.2697C59.7493 89.2697 62.7171 90.4847 64.8706 92.4492C65.5843 93.1002 66.2085 93.8332 66.725 94.6314C66.3656 92.6628 65.3328 90.9002 63.8494 89.5471C61.9686 87.8316 59.3629 86.7704 56.478 86.7704C53.5932 86.7704 50.9874 87.8316 49.1066 89.5471C47.6232 90.9002 46.5904 92.6628 46.2311 94.6314ZM46.2846 62.0951C46.801 61.2969 47.4252 60.5639 48.139 59.9129C50.2925 57.9485 53.2602 56.7334 56.5316 56.7334C59.8029 56.7334 62.7706 57.9485 64.9242 59.9129C65.6379 60.564 66.2621 61.2969 66.7785 62.0951C66.4191 60.1265 65.3863 58.364 63.9029 57.0109C62.0222 55.2953 59.4164 54.2341 56.5316 54.2341C53.6467 54.2341 51.0409 55.2953 49.1602 57.0109C47.6768 58.364 46.644 60.1265 46.2846 62.0951ZM68.4338 67.3581C68.4355 67.4155 68.4367 67.473 68.4375 67.5306C68.971 66.6765 69.6267 65.8945 70.3831 65.2045C72.5367 63.2401 75.5044 62.0251 78.7757 62.0251C82.047 62.0251 85.0147 63.2401 87.1683 65.2045C87.9615 65.9281 88.6441 66.753 89.1911 67.6561L89.1915 66.0579C89.1882 66.029 89.1864 65.9997 89.1864 65.9701C89.1864 65.8629 89.1883 65.7562 89.1917 65.6498L89.1919 64.5493L89.19 62.0275C89.1877 62.0035 89.1864 61.9792 89.1864 61.9546C89.1864 61.8707 89.1876 61.787 89.1897 61.7036L89.1867 57.96L89.1864 57.9392L89.1867 57.9034L89.1825 52.6436L89.1796 52.6436L89.1796 52.6428C89.1796 52.5932 89.179 52.5438 89.1781 52.4944C89.168 52.4453 89.1628 52.3945 89.1628 52.3424L89.1628 52.1143C89.0159 49.7704 87.898 47.6461 86.1646 46.072C84.2805 44.3611 81.6748 43.2979 78.7943 43.2977L78.7943 43.3006L78.792 43.3006L78.792 43.2977C75.9115 43.2979 73.3059 44.3611 71.4218 46.0717C69.7364 47.6018 68.6329 49.6519 68.4379 51.9177L68.437 55.4523C68.4378 55.5058 68.4384 55.5594 68.4384 55.6131C68.4384 55.6285 68.4378 55.6439 68.4369 55.6591L68.4359 59.4169C68.4374 59.4873 68.4384 59.5578 68.4384 59.6285C68.4384 59.6492 68.4375 59.6698 68.4358 59.6901L68.4349 63.3815C68.4371 63.4687 68.4384 63.5562 68.4384 63.644C68.4384 63.6688 68.4371 63.6934 68.4348 63.7176L68.4338 67.3581ZM46.2846 58.0797C46.801 57.2815 47.4252 56.5485 48.139 55.8975C50.2925 53.9331 53.2602 52.718 56.5316 52.718C59.8029 52.718 62.7706 53.9331 64.9242 55.8975C65.6379 56.5485 66.2621 57.2815 66.7785 58.0797C66.4192 56.1111 65.3863 54.3486 63.903 52.9954C62.0222 51.2799 59.4164 50.2187 56.5316 50.2187C53.6467 50.2187 51.0409 51.2799 49.1602 52.9954C47.6768 54.3486 46.644 56.1111 46.2846 58.0797ZM46.2846 54.0642C46.801 53.2661 47.4252 52.5331 48.139 51.882C50.2925 49.9176 53.2602 48.7026 56.5316 48.7026C59.8029 48.7026 62.7706 49.9176 64.9242 51.882C65.6379 52.5331 66.2621 53.266 66.7785 54.0642C66.4191 52.0956 65.3863 50.3331 63.903 48.98C62.0222 47.2644 59.4164 46.2033 56.5316 46.2033C53.6467 46.2033 51.0409 47.2644 49.1602 48.98C47.6768 50.3331 46.644 52.0956 46.2846 54.0642ZM46.2846 50.0488C46.801 49.2506 47.4252 48.5177 48.139 47.8666C50.2925 45.9022 53.2602 44.6872 56.5316 44.6872C59.8029 44.6872 62.7706 45.9022 64.9242 47.8666C65.6379 48.5177 66.2621 49.2506 66.7785 50.0488C66.4191 48.0802 65.3863 46.3177 63.903 44.9646C62.0222 43.249 59.4164 42.1878 56.5316 42.1878C53.6467 42.1878 51.0409 43.249 49.1602 44.9646C47.6768 46.3177 46.644 48.0802 46.2846 50.0488ZM46.1594 46.2318C46.699 45.3564 47.3665 44.5558 48.139 43.8512C50.2925 41.8867 53.2602 40.6717 56.5316 40.6717C59.8029 40.6717 62.7706 41.8867 64.9242 43.8512C65.6823 44.5427 66.3393 45.3268 66.8735 46.1832L66.874 44.4133C66.8707 44.3845 66.8689 44.3553 66.8689 44.3256C66.8689 44.2187 66.8708 44.1121 66.8741 44.0059L66.8751 40.4071C66.871 40.3754 66.8689 40.343 66.8689 40.3102C66.8689 40.1928 66.8712 40.0758 66.8752 39.9593L66.8761 36.3993C66.8714 36.3651 66.8689 36.3302 66.8689 36.2948C66.8689 36.1668 66.8715 36.0395 66.8763 35.9126L66.8772 32.3915C66.8718 32.3549 66.8689 32.3174 66.8689 32.2793C66.8689 31.8937 66.8908 31.5128 66.9333 31.1376C66.9237 31.0895 66.9187 31.0399 66.9187 30.989L66.9187 30.761C66.7717 28.4171 65.6539 26.2927 63.9205 24.7186C62.0363 23.0077 59.4306 21.9445 56.5501 21.9443L56.5501 21.9472L56.5479 21.9472L56.5479 21.9443C53.6674 21.9445 51.0618 23.0077 49.1777 24.7183C47.3131 26.4112 46.1598 28.7377 46.1598 31.2867L46.1628 31.2867L46.1628 31.2876L46.1598 31.2876L46.1594 46.2318ZM68.465 47.1966L68.4651 47.2498C68.9967 46.4072 69.649 45.6348 70.4006 44.9524C72.5502 43.0007 75.5172 41.7877 78.792 41.7874L78.792 41.7845L78.7943 41.7845L78.7943 41.7874C82.0692 41.7877 85.0362 43.0007 87.1858 44.9527C87.9209 45.6203 88.561 46.3741 89.0862 47.1955C88.8011 45.0646 87.731 43.1529 86.1471 41.708C84.2663 39.9924 81.6606 38.9313 78.7757 38.9313C75.8908 38.9313 73.2851 39.9924 71.4043 41.708C69.8201 43.1531 68.7499 45.0653 68.465 47.1966ZM64.9417 23.5993C65.6768 24.2669 66.3169 25.0207 66.8421 25.8421C66.557 23.7112 65.4869 21.7995 63.903 20.3546C62.0222 18.6391 59.4164 17.5779 56.5316 17.5779C53.6467 17.5779 51.0409 18.6391 49.1602 20.3546C47.5587 21.8154 46.4824 23.7534 46.2117 25.9127C46.7449 25.0635 47.4004 24.2855 48.1565 23.599C50.3061 21.6473 53.2731 20.4343 56.5479 20.4341L56.5479 20.4311L56.5501 20.4311L56.5501 20.4341C59.825 20.4343 62.7921 21.6473 64.9417 23.5993ZM46.2846 21.4234C46.801 20.6252 47.4252 19.8923 48.139 19.2412C50.2925 17.2768 53.2602 16.0618 56.5316 16.0618C59.8029 16.0618 62.7706 17.2768 64.9242 19.2412C65.6379 19.8923 66.2621 20.6252 66.7785 21.4234C66.4191 19.4548 65.3863 17.6923 63.903 16.3392C62.0222 14.6236 59.4164 13.5625 56.5316 13.5625C53.6467 13.5625 51.0409 14.6236 49.1602 16.3392C47.6768 17.6923 46.644 19.4548 46.2846 21.4234ZM46.2846 17.408C46.801 16.6098 47.4252 15.8768 48.139 15.2258C50.2925 13.2614 53.2602 12.0463 56.5316 12.0463C59.8029 12.0463 62.7706 13.2614 64.9242 15.2258C65.6379 15.8768 66.2621 16.6098 66.7785 17.408C66.4192 15.4394 65.3863 13.6769 63.903 12.3238C62.0222 10.6082 59.4164 9.54702 56.5316 9.54703C53.6467 9.54703 51.0409 10.6082 49.1602 12.3238C47.6768 13.6769 46.644 15.4394 46.2846 17.408ZM46.2846 13.3926C46.801 12.5944 47.4252 11.8614 48.139 11.2104C50.2925 9.24595 53.2602 8.0309 56.5316 8.0309C59.8029 8.0309 62.7706 9.24595 64.9242 11.2104C65.6379 11.8614 66.2621 12.5944 66.7785 13.3926C66.4191 11.424 65.3863 9.66142 63.903 8.30832C62.0222 6.59275 59.4164 5.5316 56.5316 5.5316C53.6467 5.5316 51.0409 6.59275 49.1602 8.30832C47.6768 9.66142 46.644 11.424 46.2846 13.3926ZM46.2846 9.37713C46.801 8.57892 47.4252 7.84597 48.139 7.19492C50.2925 5.2305 53.2602 4.01546 56.5316 4.01546C59.8029 4.01546 62.7706 5.2305 64.9242 7.19492C65.6379 7.84597 66.2621 8.57894 66.7785 9.37714C66.4192 7.40852 65.3863 5.64599 63.9029 4.29287C62.0222 2.5773 59.4164 1.51614 56.5316 1.51614C53.6467 1.51614 51.0409 2.5773 49.1602 4.29288C47.6768 5.64597 46.644 7.40853 46.2846 9.37713ZM23.9549 83.4485C24.4714 82.6503 25.0956 81.9173 25.8093 81.2663C27.9629 79.3019 30.9306 78.0868 34.2019 78.0868C37.4732 78.0868 40.4409 79.3019 42.5945 81.2663C43.3082 81.9173 43.9324 82.6503 44.4489 83.4485C44.0895 81.4799 43.0567 79.7174 41.5733 78.3643C39.6925 76.6487 37.0868 75.5875 34.2019 75.5875C31.317 75.5875 28.7113 76.6487 26.8305 78.3643C25.3471 79.7174 24.3143 81.4799 23.9549 83.4485ZM23.9549 79.4331C24.4714 78.6349 25.0956 77.9019 25.8093 77.2509C27.9629 75.2864 30.9306 74.0714 34.2019 74.0714C37.4732 74.0714 40.4409 75.2864 42.5945 77.2509C43.3082 77.9019 43.9324 78.6349 44.4489 79.4331C44.0895 77.4645 43.0567 75.7019 41.5733 74.3488C39.6925 72.6332 37.0868 71.5721 34.2019 71.5721C31.317 71.5721 28.7113 72.6332 26.8305 74.3488C25.3471 75.7019 24.3143 77.4645 23.9549 79.4331ZM23.9549 75.4176C24.4714 74.6194 25.0956 73.8864 25.8093 73.2354C27.9629 71.271 30.9306 70.056 34.2019 70.056C37.4732 70.056 40.4409 71.271 42.5945 73.2354C43.3082 73.8864 43.9324 74.6194 44.4488 75.4176C44.0894 73.449 43.0567 71.6865 41.5733 70.3334C39.6925 68.6178 37.0868 67.5566 34.2019 67.5566C31.317 67.5566 28.7113 68.6178 26.8305 70.3334C25.3472 71.6865 24.3144 73.449 23.9549 75.4176ZM23.9549 71.4022C24.4714 70.604 25.0956 69.871 25.8093 69.22C27.9629 67.2556 30.9306 66.0405 34.2019 66.0405C37.4732 66.0405 40.4409 67.2556 42.5945 69.22C43.3082 69.871 43.9325 70.604 44.4489 71.4022C44.0895 69.4336 43.0567 67.6711 41.5733 66.3179C39.6925 64.6024 37.0868 63.5412 34.2019 63.5412C31.317 63.5412 28.7113 64.6024 26.8305 66.318C25.3471 67.6711 24.3143 69.4336 23.9549 71.4022ZM23.8297 67.5852C24.3693 66.7098 25.0368 65.9092 25.8093 65.2045C27.9629 63.2401 30.9306 62.0251 34.2019 62.0251C37.4732 62.0251 40.4409 63.2401 42.5945 65.2045C43.3893 65.9296 44.0731 66.7563 44.6206 67.6616L44.6087 52.6436L44.6058 52.6436L44.6058 52.6428C44.6058 52.5932 44.6052 52.5438 44.6043 52.4944C44.5942 52.4453 44.589 52.3945 44.589 52.3424L44.589 52.1143C44.4421 49.7704 43.3242 47.6461 41.5908 46.072C39.7067 44.3611 37.101 43.2979 34.2205 43.2977L34.2205 43.3006L34.2182 43.3006L34.2182 43.2977C31.3377 43.2979 28.7321 44.3611 26.848 46.0717C24.9852 47.7629 23.8331 50.0893 23.8331 52.64L23.8331 52.6409L23.8301 52.6409L23.8297 67.5852ZM42.612 44.9527C43.3472 45.6203 43.9873 46.3741 44.5124 47.1955C44.2273 45.0646 43.1572 43.1528 41.5733 41.708C39.6925 39.9924 37.0868 38.9313 34.2019 38.9313C31.317 38.9313 28.7113 39.9924 26.8305 41.708C25.2295 43.1684 24.1534 45.1057 23.8823 47.2643C24.4155 46.416 25.0709 45.6386 25.8268 44.9524C27.9764 43.0007 30.9434 41.7877 34.2182 41.7874L34.2182 41.7845L34.2205 41.7845L34.2205 41.7874C37.4954 41.7877 40.4624 43.0007 42.612 44.9527ZM23.9549 42.7768C24.4714 41.9786 25.0956 41.2456 25.8093 40.5946C27.9629 38.6302 30.9306 37.4151 34.2019 37.4151C37.4732 37.4151 40.4409 38.6302 42.5945 40.5946C43.3082 41.2456 43.9325 41.9786 44.4488 42.7768C44.0895 40.8082 43.0567 39.0457 41.5733 37.6926C39.6925 35.977 37.0868 34.9158 34.2019 34.9158C31.317 34.9158 28.7113 35.977 26.8305 37.6926C25.3471 39.0457 24.3143 40.8082 23.9549 42.7768ZM23.9549 38.7614C24.4714 37.9632 25.0956 37.2302 25.8093 36.5792C27.9629 34.6148 30.9306 33.3997 34.2019 33.3997C37.4732 33.3997 40.4409 34.6148 42.5945 36.5792C43.3082 37.2302 43.9324 37.9632 44.4488 38.7614C44.0895 36.7928 43.0567 35.0302 41.5733 33.6771C39.6925 31.9616 37.0868 30.9004 34.2019 30.9004C31.317 30.9004 28.7113 31.9616 26.8305 33.6771C25.3471 35.0302 24.3143 36.7928 23.9549 38.7614ZM23.9549 34.7459C24.4714 33.9477 25.0956 33.2148 25.8093 32.5637C27.9629 30.5993 30.9306 29.3843 34.2019 29.3843C37.4732 29.3843 40.4409 30.5993 42.5945 32.5637C43.3082 33.2148 43.9324 33.9477 44.4488 34.7459C44.0894 32.7773 43.0566 31.0148 41.5733 29.6617C39.6925 27.9461 37.0868 26.885 34.2019 26.885C31.317 26.885 28.7113 27.9461 26.8305 29.6617C25.3471 31.0148 24.3143 32.7773 23.9549 34.7459ZM23.9549 30.7305C24.4714 29.9323 25.0956 29.1993 25.8093 28.5483C27.9629 26.5839 30.9306 25.3688 34.2019 25.3688C37.4732 25.3688 40.4409 26.5839 42.5945 28.5483C43.3082 29.1993 43.9325 29.9323 44.4488 30.7305C44.0895 28.7619 43.0567 26.9994 41.5733 25.6463C39.6925 23.9307 37.0868 22.8695 34.2019 22.8695C31.317 22.8695 28.7113 23.9307 26.8305 25.6463C25.3471 26.9994 24.3143 28.7619 23.9549 30.7305ZM1.65982 64.4213C2.17626 63.623 2.80046 62.8901 3.51418 62.239C5.66774 60.2746 8.63546 59.0596 11.9068 59.0596C15.1781 59.0596 18.1458 60.2746 20.2994 62.239C21.0131 62.8901 21.6373 63.623 22.1537 64.4213C21.7944 62.4527 20.7616 60.6901 19.2782 59.337C17.3974 57.6214 14.7917 56.5603 11.9068 56.5603C9.0219 56.5603 6.41616 57.6214 4.53539 59.337C3.05199 60.6901 2.01919 62.4527 1.65982 64.4213ZM1.65982 60.4058C2.17626 59.6076 2.80046 58.8746 3.51418 58.2236C5.66774 56.2592 8.63544 55.0441 11.9068 55.0441C15.1781 55.0441 18.1458 56.2592 20.2994 58.2236C21.0131 58.8746 21.6373 59.6076 22.1537 60.4058C21.7944 58.4372 20.7616 56.6747 19.2782 55.3216C17.3974 53.606 14.7917 52.5448 11.9068 52.5448C9.0219 52.5448 6.41614 53.606 4.53539 55.3216C3.05199 56.6747 2.01919 58.4372 1.65982 60.4058ZM1.65982 56.3904C2.17626 55.5922 2.80046 54.8592 3.51418 54.2082C5.6677 52.2437 8.63542 51.0287 11.9068 51.0287C15.1781 51.0287 18.1458 52.2437 20.2994 54.2082C21.0131 54.8592 21.6373 55.5922 22.1537 56.3904C21.7944 54.4218 20.7616 52.6592 19.2782 51.3061C17.3974 49.5905 14.7917 48.5294 11.9068 48.5294C9.0219 48.5294 6.41614 49.5905 4.53539 51.3061C3.05199 52.6592 2.01919 54.4218 1.65982 56.3904ZM1.65981 52.3749C2.17624 51.5768 2.80046 50.8438 3.51418 50.1927C5.6677 48.2283 8.63542 47.0133 11.9068 47.0133C15.1781 47.0133 18.1458 48.2283 20.2994 50.1927C21.0131 50.8438 21.6373 51.5767 22.1537 52.375C21.7944 50.4063 20.7616 48.6438 19.2782 47.2907C17.3974 45.5751 14.7917 44.514 11.9068 44.514C9.0219 44.514 6.41616 45.5751 4.53539 47.2907C3.05199 48.6438 2.01919 50.4063 1.65981 52.3749ZM68.5287 83.4485C69.0451 82.6503 69.6694 81.9173 70.3831 81.2663C72.5367 79.3019 75.5044 78.0868 78.7757 78.0868C82.047 78.0868 85.0147 79.3019 87.1683 81.2663C87.882 81.9173 88.5062 82.6503 89.0226 83.4485C88.6633 81.4799 87.6305 79.7174 86.1471 78.3643C84.2663 76.6487 81.6606 75.5875 78.7757 75.5875C75.8908 75.5875 73.2851 76.6487 71.4043 78.3643C69.9209 79.7174 68.8881 81.4799 68.5287 83.4485ZM68.5287 79.4331C69.0452 78.6349 69.6694 77.9019 70.3831 77.2509C72.5367 75.2864 75.5044 74.0714 78.7757 74.0714C82.047 74.0714 85.0147 75.2864 87.1683 77.2509C87.882 77.9019 88.5062 78.6349 89.0226 79.4331C88.6633 77.4645 87.6305 75.7019 86.1471 74.3488C84.2663 72.6332 81.6606 71.5721 78.7757 71.5721C75.8908 71.5721 73.2851 72.6332 71.4043 74.3488C69.9209 75.7019 68.8881 77.4644 68.5287 79.4331ZM68.5287 75.4176C69.0452 74.6194 69.6694 73.8865 70.3831 73.2354C72.5367 71.271 75.5044 70.056 78.7757 70.056C82.047 70.056 85.0147 71.271 87.1683 73.2354C87.882 73.8865 88.5062 74.6194 89.0226 75.4176C88.6633 73.449 87.6304 71.6865 86.1471 70.3334C84.2663 68.6178 81.6606 67.5566 78.7757 67.5566C75.8908 67.5566 73.2851 68.6178 71.4043 70.3334C69.9209 71.6865 68.8881 73.449 68.5287 75.4176ZM68.5287 71.4022C69.0451 70.604 69.6694 69.871 70.3831 69.22C72.5367 67.2556 75.5044 66.0405 78.7757 66.0405C82.047 66.0405 85.0147 67.2556 87.1683 69.22C87.882 69.871 88.5062 70.604 89.0227 71.4022C88.6633 69.4336 87.6305 67.6711 86.1471 66.3179C84.2663 64.6024 81.6606 63.5412 78.7757 63.5412C75.8908 63.5412 73.2851 64.6024 71.4043 66.3179C69.9209 67.6711 68.8881 69.4336 68.5287 71.4022ZM68.5287 42.7768C69.0451 41.9786 69.6694 41.2457 70.3831 40.5946C72.5367 38.6302 75.5044 37.4152 78.7757 37.4152C82.047 37.4151 85.0147 38.6302 87.1683 40.5946C87.882 41.2457 88.5062 41.9786 89.0226 42.7768C88.6633 40.8082 87.6305 39.0457 86.1471 37.6926C84.2663 35.977 81.6606 34.9158 78.7757 34.9158C75.8908 34.9158 73.2851 35.977 71.4043 37.6926C69.9209 39.0457 68.8881 40.8082 68.5287 42.7768ZM68.5287 38.7614C69.0452 37.9632 69.6694 37.2302 70.3831 36.5792C72.5367 34.6148 75.5044 33.3997 78.7757 33.3997C82.047 33.3997 85.0147 34.6148 87.1683 36.5792C87.882 37.2302 88.5062 37.9632 89.0226 38.7614C88.6633 36.7928 87.6304 35.0302 86.1471 33.6771C84.2663 31.9616 81.6605 30.9004 78.7757 30.9004C75.8908 30.9004 73.2851 31.9616 71.4043 33.6771C69.9209 35.0302 68.8881 36.7928 68.5287 38.7614ZM68.5287 34.746C69.0452 33.9477 69.6694 33.2148 70.3831 32.5637C72.5367 30.5993 75.5044 29.3843 78.7757 29.3843C82.047 29.3843 85.0147 30.5993 87.1683 32.5637C87.882 33.2148 88.5062 33.9478 89.0226 34.746C88.6633 32.7774 87.6305 31.0148 86.1471 29.6617C84.2663 27.9461 81.6606 26.885 78.7757 26.885C75.8908 26.885 73.2851 27.9461 71.4043 29.6617C69.9209 31.0148 68.8881 32.7773 68.5287 34.746ZM68.5287 30.7305C69.0451 29.9323 69.6694 29.1994 70.3831 28.5483C72.5367 26.5839 75.5044 25.3688 78.7757 25.3688C82.047 25.3688 85.0147 26.5839 87.1683 28.5483C87.882 29.1994 88.5062 29.9323 89.0227 30.7305C88.6633 28.7619 87.6305 26.9994 86.1471 25.6463C84.2663 23.9307 81.6606 22.8695 78.7757 22.8695C75.8908 22.8695 73.2851 23.9307 71.4043 25.6463C69.9209 26.9993 68.8881 28.7619 68.5287 30.7305ZM90.8463 64.4212C91.3627 63.623 91.9869 62.8901 92.7006 62.239C94.8542 60.2746 97.8219 59.0596 101.093 59.0596C104.365 59.0596 107.332 60.2746 109.486 62.239C110.2 62.8901 110.824 63.623 111.34 64.4213C110.981 62.4526 109.948 60.6901 108.465 59.337C106.584 57.6214 103.978 56.5603 101.093 56.5603C98.2083 56.5603 95.6026 57.6214 93.7218 59.337C92.2384 60.6901 91.2056 62.4526 90.8463 64.4212ZM90.8463 60.4058C91.3627 59.6076 91.9869 58.8746 92.7006 58.2236C94.8542 56.2592 97.8219 55.0441 101.093 55.0441C104.365 55.0441 107.332 56.2592 109.486 58.2236C110.2 58.8746 110.824 59.6076 111.34 60.4058C110.981 58.4372 109.948 56.6747 108.465 55.3216C106.584 53.606 103.978 52.5448 101.093 52.5448C98.2084 52.5448 95.6026 53.606 93.7218 55.3216C92.2384 56.6746 91.2056 58.4372 90.8463 60.4058ZM90.8463 56.3903C91.3627 55.5921 91.9869 54.8592 92.7006 54.2081C94.8542 52.2437 97.8219 51.0287 101.093 51.0287C104.365 51.0287 107.332 52.2437 109.486 54.2081C110.2 54.8592 110.824 55.5922 111.34 56.3904C110.981 54.4218 109.948 52.6592 108.465 51.3061C106.584 49.5905 103.978 48.5294 101.093 48.5294C98.2084 48.5294 95.6026 49.5905 93.7218 51.3061C92.2385 52.6592 91.2057 54.4218 90.8463 56.3903ZM90.8463 52.375C91.3627 51.5767 91.9869 50.8438 92.7006 50.1927C94.8542 48.2283 97.8219 47.0133 101.093 47.0133C104.365 47.0133 107.332 48.2283 109.486 50.1927C110.2 50.8438 110.824 51.5767 111.34 52.375C110.981 50.4063 109.948 48.6438 108.465 47.2907C106.584 45.5751 103.978 44.5139 101.093 44.5139C98.2083 44.5139 95.6026 45.5751 93.7218 47.2907C92.2384 48.6438 91.2056 50.4063 90.8463 52.375Z" fill="#C43054"/>
</svg>
