<svg width="143" height="143" viewBox="0 0 143 143" fill="none" xmlns="http://www.w3.org/2000/svg">
<path d="M72.1368 1.04126L113.242 72.1942H29.7579C43.6526 48.1294 57.5474 24.0647 71.4421 0L72.021 1.04126H72.1368ZM71.5579 2.8924L32.3053 70.6901H110.695L71.5579 2.8924Z" fill="#C43054"/>
<path d="M141.958 72.0785L70.7474 113.15V29.7338C94.8316 43.6173 118.916 57.5008 143 71.3843L141.958 71.9628V72.0785ZM140.105 71.5L72.2526 32.2791V110.605L140.105 71.5Z" fill="#C43054"/>
<path d="M85.3368 1.04126L126.442 72.1942H42.9579C56.8526 48.1294 70.7474 24.0647 84.6421 0L85.2211 1.04126H85.3368ZM84.7579 2.8924L45.5053 70.6901H123.895L84.7579 2.8924Z" fill="#C43054"/>
<path d="M141.958 85.2678L70.7474 126.34V42.9231L143 84.5736L141.958 85.1521V85.2678ZM140.105 84.6893L72.2526 45.4684V123.795L140.105 84.6893Z" fill="#C43054"/>
<path d="M59.0526 1.04126L100.158 72.1942H16.6737C30.5684 48.1294 44.4632 24.0647 58.3579 0L58.9368 1.04126H59.0526ZM58.4737 2.8924L19.2211 70.6901H97.6105L58.4737 2.8924Z" fill="#C43054"/>
<path d="M141.958 59.0049L70.7474 100.077V16.6602C94.8316 30.5437 118.916 44.4272 143 58.3107L141.958 58.8892V59.0049ZM140.105 58.4264L72.2526 19.2055V97.5316L140.105 58.4264Z" fill="#C43054"/>
<path d="M72.1368 43.5016L88.6947 72.1942H54.3053L71.4421 42.4604L72.021 43.5016H72.1368ZM78.8526 57.9636L71.5579 45.2371L56.8526 70.5744H86.1474L78.8526 57.8479V57.9636Z" fill="#C43054"/>
<path d="M99.4632 72.0785L70.7474 88.623V54.2613L100.505 71.3843L99.4632 71.9628V72.0785ZM84.9895 78.7888L97.7263 71.5L72.3684 56.8066V86.0777L85.1053 78.7888H84.9895Z" fill="#C43054"/>
<path d="M71.5579 140.108L110.811 72.3099H32.4211L71.6737 140.108H71.5579ZM92.4 106.903L71.5579 143C57.6632 118.935 43.7684 94.8706 29.8737 70.8058H113.358L92.5158 106.903H92.4Z" fill="#C43054"/>
<path d="M2.89474 71.5L70.7474 110.721V32.3948L2.89474 71.6157V71.5ZM36.1263 92.3252L0 71.5C24.0842 57.6165 48.1684 43.733 72.2526 29.8495V113.266L36.1263 92.4409V92.3252Z" fill="#C43054"/>
<path d="M84.6421 139.992L123.895 72.1942H45.5053L84.7579 139.992H84.6421ZM105.484 106.787L84.6421 142.884C70.7474 118.82 56.8526 94.7549 42.9579 70.6901H126.442L105.6 106.787H105.484Z" fill="#C43054"/>
<path d="M2.89474 84.5736L70.7474 123.795V45.4684L2.89474 84.6893V84.5736ZM36.1263 105.399L0 84.5736L72.2526 42.9231V126.34L36.1263 105.515V105.399Z" fill="#C43054"/>
<path d="M58.3579 139.992L97.6105 72.1942H19.2211L58.4737 139.992H58.3579ZM79.2 106.787L58.3579 142.884C44.4632 118.82 30.5684 94.7549 16.6737 70.6901H100.158L79.3158 106.787H79.2Z" fill="#C43054"/>
<path d="M2.89474 58.3107L70.7474 97.5316V19.2055L2.89474 58.4264V58.3107ZM36.1263 79.1359L0 58.3107C24.0842 44.4272 48.1684 30.5437 72.2526 16.6602V100.077L36.1263 79.2516V79.1359Z" fill="#C43054"/>
<path d="M71.5579 97.6472L86.2632 72.3099H56.9684L71.6737 97.6472H71.5579ZM80.1263 85.7306L71.5579 100.655L54.421 70.9215H88.8105L80.2421 85.8463L80.1263 85.7306Z" fill="#C43054"/>
<path d="M45.3895 71.5L70.7474 86.1934V56.9223L45.3895 71.6157V71.5ZM57.3158 80.0615L42.3789 71.5L72.1368 54.377V88.7387L57.2 80.1772L57.3158 80.0615Z" fill="#C43054"/>
</svg>
