<svg width="50" height="50" viewBox="0 0 50 50" fill="none" xmlns="http://www.w3.org/2000/svg">
<path d="M12 35.4814C15.4737 32.3165 17.2105 28.6179 17.2105 24.3856C17.2105 21.9654 16.6168 19.3094 15.4295 16.4176C14.6589 16.0949 13.6042 15.9335 12.2653 15.9335C12.2147 15.9335 12.1642 15.9335 12.1137 15.9335L18.4232 11C20.4063 12.2411 21.7263 13.8422 22.3832 15.8032L25.9453 11C30.7832 13.4699 34.68 15.4495 37.6358 16.9388C34.2379 18.7012 31.9326 19.9051 30.72 20.5505C31.6421 22.5984 32.5389 24.6525 33.4105 26.7128C34.2947 28.7606 35.2611 30.7713 36.3095 32.7447C36.8274 33.7376 37.7242 34.3582 39 34.6064C37.9137 35.3511 36.8211 36.0895 35.7221 36.8218C34.6358 37.5417 33.5495 38.2677 32.4632 39C30.1389 33.2535 27.5495 27.6622 24.6947 22.2261C25.5789 21.6676 26.4632 21.1028 27.3474 20.5319C28.2316 19.9486 29.1221 19.3715 30.0189 18.8005C28.3389 17.8573 26.5263 16.8085 24.5811 15.6543L22.7811 18.0745C22.7937 18.273 22.8 18.4716 22.8 18.6702C22.8 22.2943 21.0505 26.8369 17.5516 32.2979L22.5916 33.9734C22.8821 34.0727 23.2674 34.1223 23.7474 34.1223C24.2274 34.1223 24.8653 34.0168 25.6611 33.8058L21.0947 39L12 35.4814Z" fill="#F7F7F7"/>
<rect x="0.5" y="0.5" width="49" height="49" stroke="#F7F7F7"/>
</svg>
