<svg width="50" height="50" viewBox="0 0 50 50" fill="none" xmlns="http://www.w3.org/2000/svg">
<circle cx="25" cy="25" r="24" fill="white" stroke="#282224" stroke-width="2"/>
<path d="M16.4057 32.7008L16.4606 19.3018C16.4606 17.8253 16.4423 16.6257 16.4057 15.7029C16.4057 14.7801 16.3874 14.0788 16.3508 13.5989C16.3508 13.1191 16.3325 12.8238 16.2958 12.713L12.9999 11.9932L13.1098 10.2215H32.0612C32.3908 10.2215 33.2148 10.2215 33.2148 10.2215L35.8888 10.2215V12.6023H33.2148H32.0612H31.3631C31.3631 12.6023 30.6513 12.6023 30.2485 12.6023H23.2172C22.7045 12.6023 22.1003 12.6207 21.4045 12.6577C20.7087 12.6577 20.1594 12.6761 19.7565 12.713C19.7565 12.8607 19.7382 13.1744 19.7016 13.6543V19.6894L19.7565 31.4827V35.5118L20.0312 38.3483H16.4057V35.333V32.7008Z" fill="#282224"/>
<path d="M16.4057 35.2477C16.4423 34.3249 16.4606 35.4877 16.4606 34.0112V33.6236H19.7016V37.2964C19.7382 37.7762 19.7565 38.09 19.7565 38.2376C20.1594 38.2745 20.7087 38.293 21.4045 38.293C22.1003 38.3299 22.7045 38.3483 23.2172 38.3483H30.2485C30.6513 38.3483 31.7499 38.3483 31.7499 38.3483H34.0937H36.4374V40.7292C36.4374 40.7292 33.8007 40.7292 32.9218 40.7292C32.4732 40.7292 32.0612 40.7292 32.0612 40.7292H13.1098L12.9999 38.9574L16.2958 38.2376C16.3325 38.1269 16.3508 37.8316 16.3508 37.3517C16.3874 36.8719 16.4057 36.1705 16.4057 35.2477Z" fill="#282224"/>
<path d="M34.0937 38.3483H36.4374L35.2656 35.986L18.8593 22.993V26.5365L34.0937 38.3483Z" fill="#282224"/>
<path d="M18.8593 24.1742V21.8118H34.0937L36 21.8118V24.1742H34.0937H18.8593Z" fill="#282224"/>
</svg>
