<svg width="50" height="50" viewBox="0 0 50 50" fill="none" xmlns="http://www.w3.org/2000/svg">
<rect x="0.5" y="0.5" width="49" height="49" stroke="#F7F7F7"/>
<path d="M19.5703 16C19.5 17.0078 19.4609 17.8672 19.4531 18.5781C19.8281 18.2109 20.2031 17.8359 20.5781 17.4531C20.9531 17.0625 21.3242 16.707 21.6914 16.3867C22.8164 18.6758 24.6797 20.6016 27.2812 22.1641C27.2656 24.0391 26.9297 25.6953 26.2734 27.1328C25.625 28.5625 24.8398 29.7617 23.918 30.7305C22.9961 31.6914 22.0312 32.418 21.0234 32.9102C20.0156 33.3945 19.1562 33.6367 18.4453 33.6367C15.1328 33.6367 12.8203 32.582 11.5078 30.4727C10.2031 28.3555 9.36719 25.8867 9 23.0664C10.2578 21.2461 11.7305 19.7031 13.418 18.4375C15.1055 17.1719 17.1562 16.3594 19.5703 16ZM19.4414 20.0781C19.4727 23.6484 19.9023 26.3516 20.7305 28.1875C18.7695 28.6562 17.4883 29.457 16.8867 30.5898C17.6523 31.0508 18.4648 31.2812 19.3242 31.2812C19.4102 31.2812 19.4922 31.2773 19.5703 31.2695C20.8047 31.2305 21.8203 30.875 22.6172 30.2031C23.5547 29.4219 24.0234 28.4102 24.0234 27.168C24.0234 26.2383 23.6992 25.1602 23.0508 23.9336C22.4023 22.707 21.1992 21.4219 19.4414 20.0781ZM15.832 29.7812C16.1289 28.9531 16.2773 27.8789 16.2773 26.5586C16.2773 26.4336 16.2656 26.0312 16.2422 25.3516C16.2266 24.6641 16.2109 23.6914 16.1953 22.4336C16.1797 21.1758 16.0859 19.9297 15.9141 18.6953C14.1953 19.6953 13.3359 21.2773 13.3359 23.4414C13.3359 23.6211 13.3438 23.8047 13.3594 23.9922C13.5078 26.4453 14.332 28.375 15.832 29.7812Z" fill="#F7F7F7"/>
<path d="M39.4805 21.25C38.5898 20.4922 37.6836 19.9648 36.7617 19.668C36.707 20.4023 36.6797 21.3281 36.6797 22.4453C36.6797 23.5625 36.8008 24.8516 37.043 26.3125L33.3398 27.9648C33.9648 28.6133 34.7969 29.1016 35.8359 29.4297C36.4062 29.6094 37.0195 29.6992 37.6758 29.6992C38.3398 29.6992 39.0195 29.6406 39.7148 29.5234L37.6758 33.8125C35.4023 33.0703 33.6055 32.3516 32.2852 31.6562C30.9648 30.9531 29.9766 30.1289 29.3203 29.1836C28.6719 28.2383 28.2812 27.0977 28.1484 25.7617C28.0625 24.9258 28.0195 24.0703 28.0195 23.1953C28.0195 22.3125 28.0352 21.4961 28.0664 20.7461L37.6992 16L40.5117 18.0391L39.4805 21.25ZM33.4805 19.7852C32.1914 20.4023 31.5469 21.5352 31.5469 23.1836C31.5469 24.6758 31.9141 25.9844 32.6484 27.1094C33.1484 26.7812 33.457 26.1289 33.5742 25.1523C33.6211 24.7695 33.6445 24.1758 33.6445 23.3711C33.6445 22.5586 33.5898 21.3633 33.4805 19.7852Z" fill="#F7F7F7"/>
</svg>
