<svg width="286" height="116" viewBox="0 0 286 116" fill="none" xmlns="http://www.w3.org/2000/svg">
<path d="M66.5547 0.573242C66.1152 6.87207 65.8711 12.2432 65.8223 16.6865C68.166 14.3916 70.5098 12.0479 72.8535 9.65527C75.1973 7.21387 77.5166 4.99219 79.8115 2.99023C86.8428 17.2969 98.4883 29.333 114.748 39.0986C114.65 50.8174 112.551 61.1689 108.449 70.1533C104.396 79.0889 99.4893 86.584 93.7275 92.6387C87.9658 98.6445 81.9355 103.186 75.6367 106.262C69.3379 109.289 63.9668 110.803 59.5234 110.803C38.8203 110.803 24.3672 104.211 16.1641 91.0273C8.00977 77.7949 2.78516 62.3652 0.490234 44.7383C8.35156 33.3613 17.5557 23.7178 28.1025 15.8076C38.6494 7.89746 51.4668 2.81934 66.5547 0.573242ZM65.749 26.0615C65.9443 48.376 68.6299 65.2705 73.8057 76.7451C61.5498 79.6748 53.542 84.6797 49.7822 91.7598C54.5674 94.6406 59.6455 96.0811 65.0166 96.0811C65.5537 96.0811 66.0664 96.0566 66.5547 96.0078C74.2695 95.7637 80.6172 93.542 85.5977 89.3428C91.457 84.46 94.3867 78.1367 94.3867 70.373C94.3867 64.5625 92.3604 57.8242 88.3076 50.1582C84.2549 42.4922 76.7354 34.46 65.749 26.0615ZM43.1904 86.7061C45.0459 81.5303 45.9736 74.8164 45.9736 66.5645C45.9736 65.7832 45.9004 63.2686 45.7539 59.0205C45.6562 54.7236 45.5586 48.6445 45.4609 40.7832C45.3633 32.9219 44.7773 25.1338 43.7031 17.4189C32.9609 23.6689 27.5898 33.5566 27.5898 47.082C27.5898 48.2051 27.6387 49.3525 27.7363 50.5244C28.6641 65.8564 33.8154 77.917 43.1904 86.7061Z" fill="#1E1E1E"/>
<path d="M99.3125 98.4062L101.141 96.125L106.125 99.7344L105.656 101.578L105.453 106.609C105.453 106.641 105.453 106.672 105.453 106.703C105.453 107.214 105.609 107.635 105.922 107.969C106.234 108.292 106.589 108.536 106.984 108.703L103.859 112.516C103.089 111.911 102.495 111.375 102.078 110.906C101.672 110.438 101.469 109.474 101.469 108.016C101.469 107.911 101.469 107.802 101.469 107.688L101.578 101.906C101.578 101.469 100.911 100.74 99.5781 99.7188L98.9531 100.703L98.6562 106.609C98.6562 106.641 98.6562 106.672 98.6562 106.703C98.6562 107.214 98.8125 107.635 99.125 107.969C99.4375 108.292 99.7969 108.536 100.203 108.703L97.0781 112.516L93.7812 109.844C94.375 109.125 94.6719 108.406 94.6719 107.688L94.7969 100.594C94.7969 100.094 94.4115 99.5938 93.6406 99.0938L96 96.125L99.3125 98.4062Z" fill="#1E1E1E"/>
<path d="M115.922 108.953C114.13 110.932 112.974 112.203 112.453 112.766C111.682 112.182 110.911 111.599 110.141 111.016C109.38 110.422 108.62 109.833 107.859 109.25C108.568 108.635 109.031 108.068 109.25 107.547C109.469 107.026 109.583 106.531 109.594 106.062L109.672 96.6094C109.672 95.9323 109.641 95.125 109.578 94.1875C109.526 93.25 109.297 92.4583 108.891 91.8125L114.047 89.0156C113.766 90.2656 113.599 91.5625 113.547 92.9062C113.505 94.25 113.484 95.6146 113.484 97L113.422 106.172C113.422 106.953 113.495 107.396 113.641 107.5C113.786 107.604 114.547 108.089 115.922 108.953Z" fill="#1E1E1E"/>
<path d="M116.672 99.0938L119.031 96.125L122.531 97.7656C122.406 98.1927 122.271 98.6094 122.125 99.0156C121.979 99.4219 121.906 99.8385 121.906 100.266L121.688 106.609C121.688 106.661 121.688 106.708 121.688 106.75C121.688 107.24 121.844 107.646 122.156 107.969C122.469 108.292 122.828 108.536 123.234 108.703L120.109 112.516L116.797 109.844C117.401 109.125 117.703 108.406 117.703 107.688L117.812 100.594C117.812 100.094 117.432 99.5938 116.672 99.0938ZM117.141 95.9844L118.391 89.8125L123.031 91.6719L117.141 95.9844Z" fill="#1E1E1E"/>
<path d="M129.875 98.4062L131.703 96.125L136.688 99.7344L136.219 101.578L136.016 106.609C136.016 106.641 136.016 106.672 136.016 106.703C136.016 107.214 136.172 107.635 136.484 107.969C136.797 108.292 137.151 108.536 137.547 108.703L134.422 112.516C133.651 111.911 133.057 111.375 132.641 110.906C132.234 110.438 132.031 109.474 132.031 108.016C132.031 107.911 132.031 107.802 132.031 107.688L132.141 101.906C132.141 101.469 131.474 100.74 130.141 99.7188L129.516 100.703L129.219 106.609C129.219 106.641 129.219 106.672 129.219 106.703C129.219 107.214 129.375 107.635 129.688 107.969C130 108.292 130.359 108.536 130.766 108.703L127.641 112.516L124.344 109.844C124.938 109.125 125.234 108.406 125.234 107.688L125.359 100.594C125.359 100.094 124.974 99.5938 124.203 99.0938L126.562 96.125L129.875 98.4062Z" fill="#1E1E1E"/>
<path d="M146.219 112.516L138.734 109.531C139.016 107.969 139.156 106.344 139.156 104.656C139.156 102.958 138.995 101.188 138.672 99.3438L144.062 96.1719V96.125L144.094 96.1406H144.109L150.188 100.5L143.859 107.156C144.286 107.667 144.76 107.948 145.281 108C145.802 108.052 146.229 108.078 146.562 108.078C146.906 108.078 147.307 108.062 147.766 108.031C148.234 107.99 148.807 107.958 149.484 107.938C148.932 108.708 148.385 109.474 147.844 110.234C147.302 110.995 146.76 111.755 146.219 112.516ZM143.625 100.344C143.021 100.344 142.719 101.167 142.719 102.812C142.719 103.75 142.875 104.688 143.188 105.625C143.188 105.719 143.203 105.797 143.234 105.859L145.75 103.203C145.927 103.016 146.016 102.828 146.016 102.641C146.016 102.453 145.922 102.214 145.734 101.922C145.557 101.63 145.375 101.391 145.188 101.203C144.531 100.63 144.01 100.344 143.625 100.344Z" fill="#1E1E1E"/>
<path d="M215.901 36.3857C210.335 31.6494 204.671 28.3535 198.909 26.498C198.567 31.0879 198.396 36.874 198.396 43.8564C198.396 50.8389 199.153 58.8955 200.667 68.0264L177.522 78.3535C181.429 82.4062 186.629 85.458 193.123 87.5088C196.688 88.6318 200.521 89.1934 204.622 89.1934C208.772 89.1934 213.021 88.8271 217.366 88.0947L204.622 114.901C190.413 110.263 179.183 105.771 170.931 101.425C162.679 97.0303 156.502 91.8789 152.4 85.9707C148.348 80.0625 145.906 72.9336 145.076 64.584C144.539 59.3594 144.271 54.0127 144.271 48.5439C144.271 43.0264 144.368 37.9238 144.563 33.2363L204.769 3.57324L222.347 16.3174L215.901 36.3857ZM178.401 27.2305C170.345 31.0879 166.316 38.168 166.316 48.4707C166.316 57.7969 168.611 65.9756 173.201 73.0068C176.326 70.9561 178.255 66.8789 178.987 60.7754C179.28 58.3828 179.427 54.6719 179.427 49.6426C179.427 44.5645 179.085 37.0938 178.401 27.2305Z" fill="#1E1E1E"/>
<path d="M216.453 102.094L218.812 99.125L222.312 100.766C222.188 101.193 222.052 101.609 221.906 102.016C221.76 102.422 221.688 102.839 221.688 103.266L221.469 109.609C221.469 109.661 221.469 109.708 221.469 109.75C221.469 110.24 221.625 110.646 221.938 110.969C222.25 111.292 222.609 111.536 223.016 111.703L219.891 115.516L216.578 112.844C217.182 112.125 217.484 111.406 217.484 110.688L217.594 103.594C217.594 103.094 217.214 102.594 216.453 102.094ZM216.922 98.9844L218.172 92.8125L222.812 94.6719L216.922 98.9844Z" fill="#1E1E1E"/>
<path d="M229.656 101.406L231.484 99.125L236.469 102.734L236 104.578L235.797 109.609C235.797 109.641 235.797 109.672 235.797 109.703C235.797 110.214 235.953 110.635 236.266 110.969C236.578 111.292 236.932 111.536 237.328 111.703L234.203 115.516C233.432 114.911 232.839 114.375 232.422 113.906C232.016 113.438 231.812 112.474 231.812 111.016C231.812 110.911 231.812 110.802 231.812 110.688L231.922 104.906C231.922 104.469 231.255 103.74 229.922 102.719L229.297 103.703L229 109.609C229 109.641 229 109.672 229 109.703C229 110.214 229.156 110.635 229.469 110.969C229.781 111.292 230.141 111.536 230.547 111.703L227.422 115.516L224.125 112.844C224.719 112.125 225.016 111.406 225.016 110.688L225.141 103.594C225.141 103.094 224.755 102.594 223.984 102.094L226.344 99.125L229.656 101.406Z" fill="#1E1E1E"/>
<path d="M246 115.516L238.516 112.531C238.797 110.969 238.938 109.344 238.938 107.656C238.938 105.958 238.776 104.188 238.453 102.344L243.844 99.1719V99.125L243.875 99.1406H243.891L249.969 103.5L243.641 110.156C244.068 110.667 244.542 110.948 245.062 111C245.583 111.052 246.01 111.078 246.344 111.078C246.688 111.078 247.089 111.062 247.547 111.031C248.016 110.99 248.589 110.958 249.266 110.938C248.714 111.708 248.167 112.474 247.625 113.234C247.083 113.995 246.542 114.755 246 115.516ZM243.406 103.344C242.802 103.344 242.5 104.167 242.5 105.812C242.5 106.75 242.656 107.688 242.969 108.625C242.969 108.719 242.984 108.797 243.016 108.859L245.531 106.203C245.708 106.016 245.797 105.828 245.797 105.641C245.797 105.453 245.703 105.214 245.516 104.922C245.339 104.63 245.156 104.391 244.969 104.203C244.312 103.63 243.792 103.344 243.406 103.344Z" fill="#1E1E1E"/>
<path d="M256.688 101.453L258.547 99.125L262.547 102.078L264.906 99.125L269.891 102.734L269.422 104.578L269.219 109.609C269.219 109.661 269.219 109.708 269.219 109.75C269.219 110.24 269.375 110.646 269.688 110.969C270 111.292 270.354 111.536 270.75 111.703L267.625 115.516C266.854 114.911 266.26 114.375 265.844 113.906C265.438 113.438 265.234 112.474 265.234 111.016C265.234 110.911 265.234 110.802 265.234 110.688L265.344 104.906C265.344 104.49 264.786 103.807 263.672 102.859L263.031 103.969L262.797 109.609C262.797 109.641 262.797 109.672 262.797 109.703C262.797 110.214 262.953 110.635 263.266 110.969C263.578 111.292 263.938 111.536 264.344 111.703L261.219 115.516L257.891 112.844C258.484 112.146 258.792 111.427 258.812 110.688L258.906 104.906C258.906 104.448 258.297 103.724 257.078 102.734L256.156 103.828L256.016 109.609C256.005 110.161 256.156 110.609 256.469 110.953C256.792 111.286 257.156 111.536 257.562 111.703L254.438 115.516L251.141 112.844C251.734 112.125 252.031 111.406 252.031 110.688L252.156 103.594C252.156 103.094 251.771 102.594 251 102.094L253.359 99.125L256.688 101.438V101.453Z" fill="#1E1E1E"/>
<path d="M271.953 104.141L278.047 99.1875L284.953 102.422C284.141 103.13 283.729 103.927 283.719 104.812L283.656 109.984C283.656 110.339 283.839 110.74 284.203 111.188C284.578 111.635 284.932 111.995 285.266 112.266L282.109 115.516L279.688 113.031C279.104 113.5 278.516 113.932 277.922 114.328C277.328 114.714 276.797 115.12 276.328 115.547C274.766 114.964 273.307 114.062 271.953 112.844C272.339 112.354 272.562 111.641 272.625 110.703L272.578 105.984C272.578 105.943 272.578 105.901 272.578 105.859C272.578 105.245 272.37 104.672 271.953 104.141ZM277.312 102.938C276.708 103.844 276.406 104.651 276.406 105.359V109.188C276.406 109.969 276.547 110.526 276.828 110.859C277.068 111.203 277.286 111.51 277.484 111.781C277.693 112.052 278.021 112.25 278.469 112.375L279.75 111.453V104.266L277.312 102.938Z" fill="#1E1E1E"/>
</svg>
