<svg width="76" height="33" viewBox="0 0 76 33" fill="none" xmlns="http://www.w3.org/2000/svg">
<path d="M0.501022 17.3423L0.507843 17.3424L0.538696 17.3428C0.566856 17.3432 0.610107 17.3441 0.667969 17.3459C0.783699 17.3495 0.957855 17.3568 1.18652 17.3716C1.64389 17.4011 2.31924 17.4605 3.18146 17.5798C4.90598 17.8185 7.37718 18.2969 10.3463 19.2556C16.2832 21.1728 24.2139 25.0114 32.1521 32.7015L32.8479 31.9832C24.7861 24.1733 16.7168 20.2619 10.6537 18.304C9.43155 17.9094 8.29107 17.5942 7.24869 17.3423H76V16.3423L7.13776 16.3423C8.26675 16.064 9.51131 15.7081 10.8485 15.2532C16.9782 13.1678 25.0514 9.0018 32.8644 0.684675L32.1356 0C24.4486 8.18287 16.5218 12.2668 10.5265 14.3065C7.52785 15.3266 5.01138 15.8357 3.24899 16.0896C2.36786 16.2166 1.67548 16.2798 1.20587 16.3112C0.971077 16.3269 0.792015 16.3347 0.672943 16.3386C0.613411 16.3405 0.568855 16.3414 0.539856 16.3419L0.508087 16.3423L0.501053 16.3423L0.499771 16.3423H0V17.3423H0.49971L0.501022 17.3423Z" fill="#282224"/>
</svg>
