<svg width="25" height="24" viewBox="0 0 25 24" fill="none" xmlns="http://www.w3.org/2000/svg">
<path d="M12.0338 1.58645C12.1988 1.16071 12.8012 1.16071 12.9662 1.58645L15.4656 8.03523C15.6784 8.58434 16.1929 8.95811 16.7809 8.99084L23.6864 9.37512C24.1423 9.40049 24.3284 9.97341 23.9745 10.2619L18.6137 14.6318C18.1573 15.0038 17.9608 15.6086 18.1113 16.178L19.8798 22.8642C19.9965 23.3057 19.5092 23.6597 19.1254 23.4123L13.3129 19.6642C12.818 19.3451 12.182 19.3451 11.6871 19.6642L5.87456 23.4123C5.49082 23.6597 5.00347 23.3057 5.12022 22.8642L6.88866 16.178C7.03924 15.6086 6.84274 15.0038 6.38627 14.6318L1.02548 10.2619C0.671561 9.97341 0.857712 9.40049 1.31361 9.37512L8.21912 8.99084C8.80712 8.95811 9.32157 8.58434 9.5344 8.03523L12.0338 1.58645Z" stroke="#D4183A"/>
</svg>
